<svg width="36" height="36" viewBox="0 0 36 36" fill="none" xmlns="http://www.w3.org/2000/svg">
<g id="Facebook - Original" clip-path="url(#clip0_152_2527)">
<path id="Vector" d="M35.8922 17.6629C35.8922 7.90794 27.9842 0 18.2293 0C8.47435 0 0.566406 7.90794 0.566406 17.6629C0.566406 26.4788 7.02544 33.7861 15.4695 35.1112V22.7686H10.9848V17.6629H15.4695V13.7715C15.4695 9.34477 18.1065 6.89957 22.141 6.89957C24.0729 6.89957 26.0948 7.24455 26.0948 7.24455V11.5913H23.8676C21.6736 11.5913 20.9891 12.9529 20.9891 14.3511V17.6629H25.8878L25.1047 22.7686H20.9891V35.1112C29.4332 33.7861 35.8922 26.4788 35.8922 17.6629Z" fill="#1877F2"/>
<path id="Vector_2" d="M25.1043 22.7694L25.8874 17.6637H20.9887V14.3519C20.9887 12.9551 21.6732 11.5921 23.8672 11.5921H26.0944V7.24537C26.0944 7.24537 24.0732 6.90039 22.1406 6.90039C18.1061 6.90039 15.4691 9.3456 15.4691 13.7724V17.6637H10.9844V22.7694H15.4691V35.112C17.2979 35.3981 19.16 35.3981 20.9887 35.112V22.7694H25.1043Z" fill="white"/>
</g>
<defs>
<clipPath id="clip0_152_2527">
<rect width="35.3258" height="35.3258" fill="white" transform="translate(0.566406)"/>
</clipPath>
</defs>
</svg>
