<svg width="58" height="59" viewBox="0 0 58 59" fill="none" xmlns="http://www.w3.org/2000/svg">
<g id="Facebook - Original" clip-path="url(#clip0_190_2520)">
<path id="Vector" d="M58 29.2266C58 13.2103 45.0163 0.226562 29 0.226562C12.9837 0.226562 0 13.2103 0 29.2266C0 43.7011 10.6048 55.6987 24.4688 57.8743V37.6094H17.1055V29.2266H24.4688V22.8375C24.4688 15.5694 28.7984 11.5547 35.4225 11.5547C38.5944 11.5547 41.9141 12.1211 41.9141 12.1211V19.2578H38.2573C34.655 19.2578 33.5312 21.4934 33.5312 23.7891V29.2266H41.5742L40.2885 37.6094H33.5312V57.8743C47.3952 55.6987 58 43.7011 58 29.2266Z" fill="#1877F2"/>
<path id="Vector_2" d="M40.288 37.6113L41.5737 29.2285H33.5308V23.791C33.5308 21.4976 34.6545 19.2598 38.2569 19.2598H41.9136V12.123C41.9136 12.123 38.595 11.5566 35.422 11.5566C28.7979 11.5566 24.4683 15.5713 24.4683 22.8395V29.2285H17.105V37.6113H24.4683V57.8762C27.4708 58.346 30.5282 58.346 33.5308 57.8762V37.6113H40.288Z" fill="white"/>
</g>
<defs>
<clipPath id="clip0_190_2520">
<rect width="58" height="58" fill="white" transform="translate(0 0.226562)"/>
</clipPath>
</defs>
</svg>
