<svg width="149" height="42" viewBox="0 0 149 42" fill="none" xmlns="http://www.w3.org/2000/svg">
<g id="Group 9318">
<path id="Vector" d="M2.19121 38.5954V38.9795L2.56238 39.0785C6.66617 40.1729 11.0916 40.7182 15.8361 40.7182C20.8797 40.7182 24.7538 39.7648 27.3762 37.7767C30.0247 35.7689 31.3201 32.765 31.3201 28.8585C31.3201 25.2427 30.2572 22.4466 28.0546 20.5669C25.8672 18.7001 22.6392 17.8101 18.4597 17.8101H13.483C11.1643 17.8101 9.51865 17.3036 8.45612 16.3779C7.40675 15.4637 6.84257 14.0665 6.84257 12.0893C6.84257 9.89087 7.65505 8.29911 9.257 7.23114C10.8947 6.13932 13.4146 5.55706 16.8909 5.55706C21.3446 5.55706 25.4773 6.26947 29.2934 7.68943L29.9678 7.94036V7.22082V2.62282V2.24325L29.6022 2.14123C25.6768 1.04577 21.4388 0.5 16.8909 0.5C11.6626 0.5 7.65162 1.42928 4.93659 3.36522C2.19043 5.32335 0.838867 8.2611 0.838867 12.0893C0.838867 15.7023 1.88202 18.4975 4.04701 20.378C6.19854 22.2469 9.3738 23.1376 13.483 23.1376H18.4597C20.8534 23.1376 22.5555 23.6454 23.6544 24.5746C24.7372 25.4903 25.3164 26.886 25.3164 28.8585C25.3164 31.166 24.5365 32.8268 23.0261 33.932C21.4866 35.0584 19.1167 35.6612 15.8361 35.6612C11.1817 35.6612 6.85722 34.948 2.85871 33.5263L2.19121 33.289V33.9974V38.5954ZM37.0819 39.9478V40.4478H37.5819H42.5856H43.0856V39.9478V19.5864C45.1936 17.3143 47.5383 16.2136 50.1317 16.2136C51.7934 16.2136 52.958 16.7133 53.7217 17.6408C54.5008 18.5868 54.933 20.0611 54.933 22.1508V39.9478V40.4478H55.433H60.4367H60.9367V39.9478V19.5931C63.1539 17.3095 65.4823 16.2136 67.9287 16.2136C69.6122 16.2136 70.7913 16.709 71.5628 17.6248C72.3482 18.5569 72.784 20.0091 72.784 22.0697V39.9478V40.4478H73.284H78.2877H78.7877V39.9478V22.3401C78.7877 18.6772 77.958 15.8366 76.2103 13.9103C74.4542 11.9748 71.8507 11.0484 68.4967 11.0484C65.3321 11.0484 62.2419 12.2846 59.233 14.6961C57.5548 12.2283 54.6576 11.0484 50.6997 11.0484C47.6028 11.0484 44.7339 12.1146 42.1027 14.2151L41.4496 11.434L41.359 11.0484H40.9628H37.5819H37.0819V11.5484V39.9478ZM104.311 37.8313L105.774 40.2098L105.921 40.4478H106.2H109.013H109.513V39.9478V20.3657C109.513 17.2901 108.399 14.9199 106.134 13.3424C103.903 11.7878 100.617 11.0484 96.3552 11.0484C93.3821 11.0484 90.3413 11.5072 87.2345 12.421L86.8755 12.5266V12.9007V16.9578V17.626L87.5166 17.4374C90.5404 16.5481 93.4861 16.1054 96.3552 16.1054C98.8694 16.1054 100.669 16.5103 101.827 17.2505C102.946 17.9663 103.509 19.0238 103.509 20.5009V22.6035C101.206 22.293 98.9025 22.1376 96.5986 22.1376C92.709 22.1376 89.7003 22.8724 87.655 24.4233C85.5835 25.9939 84.5766 28.3418 84.5766 31.3738C84.5766 34.333 85.4557 36.636 87.2894 38.1861C89.1071 39.7227 91.7798 40.4478 95.2192 40.4478C98.4848 40.4478 101.519 39.5737 104.311 37.8313ZM116.654 39.9478V40.4478H117.154H122.158H122.658V39.9478V19.5018C124.649 17.3116 127.218 16.2136 130.407 16.2136H130.907V15.7136V11.5484V11.0484H130.407C127.072 11.0484 124.166 12.1125 121.712 14.2343L121.021 11.4288L120.927 11.0484H120.535H117.154H116.654V11.5484V39.9478ZM135.438 6.45035H134.938V6.95035V32.2934C134.938 34.9137 135.549 36.9719 136.858 38.3753C138.173 39.7851 140.112 40.4478 142.579 40.4478H147.339H147.839V39.9478V35.8907V35.3907H147.339H143.877C142.83 35.3907 142.129 35.091 141.679 34.5698C141.217 34.0347 140.942 33.1795 140.942 31.9148V16.1054H147.339H147.839V15.6054V11.5484V11.0484H147.339H140.054L139.062 6.83584L138.972 6.45035H138.576H135.438ZM90.5803 31.2927C90.5803 29.894 91.0662 28.9101 91.9981 28.2528C92.9618 27.5729 94.4694 27.1947 96.5986 27.1947C98.9019 27.1947 101.206 27.353 103.509 27.6698V32.8822C101.247 34.5475 98.4929 35.3907 95.2192 35.3907C93.5704 35.3907 92.4272 35.0207 91.6984 34.3686C90.9801 33.7259 90.5803 32.733 90.5803 31.2927Z" fill="black" stroke="black"/>
</g>
</svg>
