<svg width="56" height="59" viewBox="0 0 56 59" fill="none" xmlns="http://www.w3.org/2000/svg">
<g id="Twitter">
<g id="Twitter_2">
<path id="back" d="M0 29.2266C0 13.2103 12.536 0.226562 28 0.226562C43.464 0.226562 56 13.2103 56 29.2266C56 45.2428 43.464 58.2266 28 58.2266C12.536 58.2266 0 45.2428 0 29.2266Z" fill="#55ACEE"/>
<path id="Shape" d="M27.1614 23.7985L27.2202 24.802L26.2409 24.6791C22.6763 24.2081 19.5623 22.6107 16.9182 19.928L15.6256 18.5969L15.2926 19.5799C14.5876 21.7711 15.038 24.0852 16.5069 25.6416C17.2904 26.5017 17.1141 26.6246 15.7627 26.1126C15.2926 25.9488 14.8813 25.8259 14.8422 25.8874C14.7051 26.0307 15.1751 27.8943 15.5472 28.6315C16.0565 29.6555 17.0945 30.6589 18.2305 31.2528L19.1901 31.7238L18.0542 31.7443C16.9574 31.7443 16.9182 31.7648 17.0357 32.1949C17.4274 33.526 18.9747 34.939 20.6982 35.5534L21.9125 35.9835L20.8549 36.6388C19.2881 37.5808 17.447 38.1133 15.606 38.1542C14.7247 38.1747 14 38.2566 14 38.318C14 38.5228 16.3894 39.6697 17.78 40.1202C21.9517 41.4513 26.9068 40.8779 30.628 38.6048C33.2721 36.9869 35.9161 33.7717 37.15 30.6589C37.8159 29.0002 38.4818 25.9693 38.4818 24.5153C38.4818 23.5732 38.5405 23.4504 39.6373 22.324C40.2836 21.6687 40.8908 20.952 41.0083 20.7472C41.2042 20.3581 41.1846 20.3581 40.1857 20.7062C38.5209 21.3206 38.2859 21.2387 39.1085 20.3171C39.7157 19.6618 40.4403 18.474 40.4403 18.1259C40.4403 18.0644 40.1465 18.1668 39.8136 18.3511C39.4611 18.5559 38.6776 18.8631 38.0901 19.0474L37.0325 19.3956L36.0728 18.7198C35.544 18.3511 34.7997 17.9416 34.408 17.8187C33.4092 17.532 31.8815 17.5729 30.9806 17.9006C28.5324 18.8221 26.9851 21.1977 27.1614 23.7985Z" fill="white"/>
</g>
</g>
</svg>
