<svg width="35" height="36" viewBox="0 0 35 36" fill="none" xmlns="http://www.w3.org/2000/svg">
<g id="Twitter">
<path id="back" d="M0.892578 17.6629C0.892578 7.90795 8.52784 0 17.9464 0C27.365 0 35.0002 7.90795 35.0002 17.6629C35.0002 27.4178 27.365 35.3258 17.9464 35.3258C8.52784 35.3258 0.892578 27.4178 0.892578 17.6629Z" fill="#55ACEE"/>
<path id="Shape" d="M17.4361 14.3565L17.4719 14.9677L16.8754 14.8929C14.7044 14.606 12.8077 13.6331 11.1973 11.9991L10.41 11.1884L10.2072 11.7871C9.77779 13.1217 10.0521 14.5312 10.9468 15.4791C11.424 16.003 11.3166 16.0778 10.4935 15.766C10.2072 15.6662 9.95672 15.5914 9.93286 15.6288C9.84936 15.7161 10.1356 16.8511 10.3623 17.3002C10.6724 17.9238 11.3047 18.535 11.9965 18.8967L12.5811 19.1836L11.8892 19.1961C11.2212 19.1961 11.1973 19.2085 11.2689 19.4705C11.5075 20.2812 12.4498 21.1418 13.4996 21.516L14.2392 21.778L13.595 22.1771C12.6407 22.7509 11.5194 23.0752 10.3981 23.1001C9.86129 23.1126 9.41992 23.1625 9.41992 23.1999C9.41992 23.3246 10.8752 24.0231 11.7222 24.2975C14.263 25.1082 17.281 24.759 19.5475 23.3745C21.1579 22.3891 22.7682 20.4309 23.5198 18.535C23.9253 17.5247 24.3309 15.6787 24.3309 14.7931C24.3309 14.2193 24.3667 14.1445 25.0347 13.4585C25.4284 13.0594 25.7982 12.6228 25.8697 12.4981C25.989 12.2611 25.9771 12.2611 25.3687 12.4731C24.3548 12.8473 24.2116 12.7974 24.7126 12.2361C25.0824 11.837 25.5238 11.1136 25.5238 10.9015C25.5238 10.8641 25.3449 10.9265 25.1421 11.0387C24.9274 11.1635 24.4502 11.3506 24.0923 11.4628L23.4482 11.6749L22.8637 11.2632C22.5416 11.0387 22.0883 10.7893 21.8497 10.7144C21.2414 10.5398 20.3109 10.5648 19.7622 10.7643C18.2711 11.3256 17.3287 12.7725 17.4361 14.3565Z" fill="white"/>
</g>
</svg>
