<svg width="37" height="36" viewBox="0 0 37 36" fill="none" xmlns="http://www.w3.org/2000/svg">
<g id="WhatsApp">
<path id="Oval" d="M18.6188 35.3258C28.5419 35.3258 36.5862 27.4178 36.5862 17.6629C36.5862 7.90795 28.5419 0 18.6188 0C8.69566 0 0.651367 7.90795 0.651367 17.6629C0.651367 27.4178 8.69566 35.3258 18.6188 35.3258Z" fill="#25D366"/>
<path id="Page-1" fill-rule="evenodd" clip-rule="evenodd" d="M19.2113 27.4899H19.2069C17.4187 27.4893 15.6618 27.0483 14.1012 26.2115L8.4375 27.672L9.95321 22.2295C9.01825 20.6367 8.52627 18.8299 8.52707 16.9788C8.52942 11.1879 13.3223 6.47656 19.2112 6.47656C22.0693 6.47778 24.7518 7.57156 26.7689 9.55683C28.7861 11.542 29.8963 14.1808 29.8952 16.9871C29.8928 22.7767 25.1019 27.4875 19.2113 27.4899ZM14.3637 24.3098L14.688 24.499C16.0514 25.2944 17.6143 25.7152 19.2077 25.7158H19.2113C24.1058 25.7158 28.0894 21.7997 28.0913 16.9862C28.0923 14.6536 27.1695 12.4604 25.4929 10.8103C23.8163 9.1602 21.5867 8.25104 19.2148 8.25023C14.3166 8.25023 10.333 12.166 10.331 16.9791C10.3303 18.6286 10.7998 20.235 11.6887 21.6249L11.8999 21.9551L11.0028 25.1765L14.3637 24.3098ZM24.2283 19.2481C24.4145 19.3366 24.5402 19.3963 24.5939 19.4844C24.6606 19.5938 24.6606 20.1193 24.4383 20.7324C24.2157 21.3454 23.1493 21.9048 22.6363 21.9802C22.1764 22.0478 21.5944 22.076 20.9549 21.8762C20.5672 21.7552 20.0699 21.5938 19.433 21.3234C16.9304 20.261 15.2391 17.8765 14.9194 17.4259C14.897 17.3943 14.8814 17.3722 14.8726 17.3607L14.8705 17.3579C14.7292 17.1726 13.7826 15.931 13.7826 14.646C13.7826 13.4371 14.3866 12.8035 14.6647 12.5119C14.6837 12.4919 14.7012 12.4735 14.7169 12.4567C14.9616 12.1939 15.2508 12.1283 15.4288 12.1283C15.6067 12.1283 15.7849 12.1299 15.9404 12.1376C15.9596 12.1385 15.9796 12.1384 16.0002 12.1383C16.1558 12.1374 16.3498 12.1363 16.5411 12.588C16.6147 12.7619 16.7224 13.0197 16.836 13.2915C17.0657 13.8413 17.3195 14.4487 17.3642 14.5366C17.4309 14.668 17.4754 14.8212 17.3864 14.9964C17.373 15.0227 17.3607 15.0475 17.3489 15.0712C17.2821 15.2053 17.2329 15.304 17.1195 15.4342C17.0749 15.4854 17.0288 15.5406 16.9827 15.5958C16.8908 15.7057 16.799 15.8156 16.719 15.894C16.5854 16.0248 16.4463 16.1668 16.602 16.4295C16.7577 16.6923 17.2935 17.5516 18.0871 18.2475C18.9402 18.9956 19.6816 19.3117 20.0575 19.472C20.1308 19.5033 20.1903 19.5286 20.2339 19.5501C20.5008 19.6815 20.6565 19.6595 20.8122 19.4844C20.968 19.3093 21.4796 18.7181 21.6575 18.4554C21.8354 18.1927 22.0135 18.2365 22.2581 18.324C22.5029 18.4117 23.8154 19.0465 24.0823 19.1778C24.1344 19.2035 24.1832 19.2266 24.2283 19.2481Z" fill="#FDFDFD"/>
</g>
</svg>
