<svg width="36" height="36" viewBox="0 0 36 36" fill="none" xmlns="http://www.w3.org/2000/svg">
<g id="Youtube">
<path id="back" d="M0.950195 17.6629C0.950195 7.90795 8.69916 0 18.258 0C27.8168 0 35.5658 7.90795 35.5658 17.6629C35.5658 27.4178 27.8168 35.3258 18.258 35.3258C8.69916 35.3258 0.950195 27.4178 0.950195 17.6629Z" fill="#FF0000"/>
<path id="Fill-1" d="M27.1032 13.3021C26.8909 12.4697 26.2653 11.8142 25.4709 11.5918C24.0313 11.1875 18.2582 11.1875 18.2582 11.1875C18.2582 11.1875 12.485 11.1875 11.0453 11.5918C10.251 11.8142 9.62535 12.4697 9.41305 13.3021C9.02734 14.8106 9.02734 17.9583 9.02734 17.9583C9.02734 17.9583 9.02734 21.1058 9.41305 22.6145C9.62535 23.4469 10.251 24.1023 11.0453 24.3249C12.485 24.729 18.2582 24.729 18.2582 24.729C18.2582 24.729 24.0313 24.729 25.4709 24.3249C26.2653 24.1023 26.8909 23.4469 27.1032 22.6145C27.489 21.1058 27.489 17.9583 27.489 17.9583C27.489 17.9583 27.489 14.8106 27.1032 13.3021Z" fill="white"/>
<path id="Fill-2" d="M16.5273 21.1943V15.3066L21.1428 18.2506L16.5273 21.1943Z" fill="#FF0000"/>
</g>
</svg>
